<?xml version="1.0" encoding="UTF-8" standalone="no"?>
<!-- Created with Inkscape (http://www.inkscape.org/) -->

<svg
   xmlns:dc="http://purl.org/dc/elements/1.1/"
   xmlns:cc="http://creativecommons.org/ns#"
   xmlns:rdf="http://www.w3.org/1999/02/22-rdf-syntax-ns#"
   xmlns:svg="http://www.w3.org/2000/svg"
   xmlns="http://www.w3.org/2000/svg"
   xmlns:sodipodi="http://sodipodi.sourceforge.net/DTD/sodipodi-0.dtd"
   xmlns:inkscape="http://www.inkscape.org/namespaces/inkscape"
   width="150"
   height="150"
   id="svg3868"
   version="1.1"
   inkscape:version="0.48.2 r9819"
   sodipodi:docname="center.svg"
   inkscape:export-filename="D:\robin\vmarker_nextgen\software\ConfigSoftware\vmarker-utilty\rc\center.png"
   inkscape:export-xdpi="45"
   inkscape:export-ydpi="45">
  <defs
     id="defs3870" />
  <sodipodi:namedview
     id="base"
     pagecolor="#ffffff"
     bordercolor="#666666"
     borderopacity="1.0"
     inkscape:pageopacity="0.0"
     inkscape:pageshadow="2"
     inkscape:zoom="2"
     inkscape:cx="107.90157"
     inkscape:cy="169.66887"
     inkscape:document-units="px"
     inkscape:current-layer="layer1"
     showgrid="true"
     inkscape:window-width="1920"
     inkscape:window-height="1018"
     inkscape:window-x="-8"
     inkscape:window-y="-8"
     inkscape:window-maximized="1">
    <inkscape:grid
       type="xygrid"
       id="grid3876"
       empspacing="5"
       visible="true"
       enabled="true"
       snapvisiblegridlinesonly="true" />
  </sodipodi:namedview>
  <metadata
     id="metadata3873">
    <rdf:RDF>
      <cc:Work
         rdf:about="">
        <dc:format>image/svg+xml</dc:format>
        <dc:type
           rdf:resource="http://purl.org/dc/dcmitype/StillImage" />
        <dc:title></dc:title>
      </cc:Work>
    </rdf:RDF>
  </metadata>
  <g
     inkscape:label="Laag 1"
     inkscape:groupmode="layer"
     id="layer1"
     transform="translate(0,-902.36218)">
    <path
       style="fill:none;stroke:#000000;stroke-width:2.5;stroke-linecap:butt;stroke-linejoin:miter;stroke-miterlimit:4;stroke-opacity:1;stroke-dasharray:none"
       d="m 0,977.36217 150,0"
       id="path3880"
       inkscape:connector-curvature="0"
       sodipodi:nodetypes="cc" />
    <path
       style="fill:none;stroke:#000000;stroke-width:2.5;stroke-linecap:butt;stroke-linejoin:miter;stroke-miterlimit:4;stroke-opacity:1;stroke-dasharray:none"
       d="M 75,1052.3622 75,902.36215"
       id="path3880-4"
       inkscape:connector-curvature="0"
       sodipodi:nodetypes="cc" />
    <path
       sodipodi:type="arc"
       style="fill:none;stroke:#000000;stroke-width:2.59062195;stroke-miterlimit:4;stroke-opacity:1;stroke-dasharray:none"
       id="path4408"
       sodipodi:cx="220"
       sodipodi:cy="87.5"
       sodipodi:rx="65"
       sodipodi:ry="62.5"
       d="m 285,87.5 a 65,62.5 0 1 1 -130,0 65,62.5 0 1 1 130,0 z"
       transform="matrix(0.9462792,0,0,0.9841304,-133.18143,891.25076)" />
    <path
       sodipodi:type="arc"
       style="fill:none;stroke:#000000;stroke-width:4.6563549;stroke-linecap:butt;stroke-linejoin:miter;stroke-miterlimit:4;stroke-opacity:1;stroke-dasharray:none"
       id="path4410"
       sodipodi:cx="150"
       sodipodi:cy="155"
       sodipodi:rx="60"
       sodipodi:ry="75"
       d="m 210,155 a 60,75 0 1 1 -120,0 60,75 0 1 1 120,0 z"
       transform="matrix(0.6002732,0,0,0.48021856,-15.040981,902.9283)" />
    <path
       sodipodi:type="arc"
       style="fill:none;stroke:#000000;stroke-width:1.37889159;stroke-linecap:butt;stroke-linejoin:miter;stroke-miterlimit:4;stroke-opacity:1;stroke-dasharray:none"
       id="path4410-2"
       sodipodi:cx="150"
       sodipodi:cy="155"
       sodipodi:rx="60"
       sodipodi:ry="75"
       d="m 210,155 a 60,75 0 1 1 -120,0 60,75 0 1 1 120,0 z"
       transform="matrix(0.8108208,0,0,0.64865665,-46.623118,876.8204)" />
    <path
       sodipodi:type="arc"
       style="fill:none;stroke:#000000;stroke-width:1.38907373;stroke-linecap:butt;stroke-linejoin:miter;stroke-miterlimit:4;stroke-opacity:1;stroke-dasharray:none"
       id="path4430"
       sodipodi:cx="162.5"
       sodipodi:cy="150"
       sodipodi:rx="32.5"
       sodipodi:ry="35"
       d="m 195,150 a 32.5,35 0 1 1 -65,0 32.5,35 0 1 1 65,0 z"
       transform="matrix(0.7470799,0,0,0.693717,-46.620387,873.30462)" />
    <path
       sodipodi:type="arc"
       style="fill:#ffffff;fill-opacity:1;stroke:#000000;stroke-width:17.50973892;stroke-linecap:butt;stroke-linejoin:miter;stroke-miterlimit:4;stroke-opacity:1;stroke-dasharray:none"
       id="path4432"
       sodipodi:cx="155"
       sodipodi:cy="152.5"
       sodipodi:rx="20"
       sodipodi:ry="22.5"
       d="m 175,152.5 a 20,22.5 0 1 1 -40,0 20,22.5 0 1 1 40,0 z"
       transform="matrix(0.44241257,0,0,0.39325562,6.426051,917.3907)" />
  </g>
</svg>
