<?xml version="1.0" encoding="UTF-8" standalone="no"?>
<!-- Created with Inkscape (http://www.inkscape.org/) -->

<svg
   xmlns:dc="http://purl.org/dc/elements/1.1/"
   xmlns:cc="http://creativecommons.org/ns#"
   xmlns:rdf="http://www.w3.org/1999/02/22-rdf-syntax-ns#"
   xmlns:svg="http://www.w3.org/2000/svg"
   xmlns="http://www.w3.org/2000/svg"
   xmlns:xlink="http://www.w3.org/1999/xlink"
   xmlns:sodipodi="http://sodipodi.sourceforge.net/DTD/sodipodi-0.dtd"
   xmlns:inkscape="http://www.inkscape.org/namespaces/inkscape"
   width="64px"
   height="64px"
   id="svg2985"
   version="1.1"
   inkscape:version="0.48.2 r9819"
   sodipodi:docname="vmarker_icon.svg"
   inkscape:export-filename="D:\robin\vmarker_nextgen\software\ConfigSoftware\vmarker-utilty\rc\vmarker_icon.png"
   inkscape:export-xdpi="90"
   inkscape:export-ydpi="90">
  <defs
     id="defs2987">
    <linearGradient
       y2="542.97144"
       x2="1598.4268"
       y1="542.97144"
       x1="865.36743"
       gradientTransform="matrix(0.10760569,0,0,0.10760569,-47.670741,909.89883)"
       gradientUnits="userSpaceOnUse"
       id="linearGradient3777"
       xlink:href="#linearGradient3617"
       inkscape:collect="always" />
    <linearGradient
       y2="542.97144"
       x2="1598.4268"
       y1="542.97144"
       x1="865.36743"
       gradientTransform="matrix(0.10760569,0,0,0.10760569,-47.670741,909.89883)"
       gradientUnits="userSpaceOnUse"
       id="linearGradient3775"
       xlink:href="#linearGradient3625"
       inkscape:collect="always" />
    <filter
       id="filter3767"
       inkscape:collect="always">
      <feGaussianBlur
         id="feGaussianBlur3769"
         stdDeviation="2.9988708"
         inkscape:collect="always" />
    </filter>
    <linearGradient
       id="linearGradient3617-6">
      <stop
         id="stop3619-4"
         offset="0"
         style="stop-color:#6b6b6b;stop-opacity:1;" />
      <stop
         id="stop3621-9"
         offset="1"
         style="stop-color:#575757;stop-opacity:1;" />
    </linearGradient>
    <linearGradient
       y2="542.97144"
       x2="1598.4268"
       y1="542.97144"
       x1="865.36743"
       gradientTransform="matrix(0.10760569,0,0,0.10760569,-47.670741,909.89883)"
       gradientUnits="userSpaceOnUse"
       id="linearGradient3690-0"
       xlink:href="#linearGradient3617-6"
       inkscape:collect="always" />
    <linearGradient
       id="linearGradient3625-5">
      <stop
         id="stop3627-2"
         offset="0"
         style="stop-color:#cecece;stop-opacity:1;" />
      <stop
         style="stop-color:#efefef;stop-opacity:1;"
         offset="0.5"
         id="stop3692-8" />
      <stop
         id="stop3629-4"
         offset="1"
         style="stop-color:#c9c9c9;stop-opacity:1;" />
    </linearGradient>
    <linearGradient
       y2="542.97144"
       x2="1598.4268"
       y1="542.97144"
       x1="865.36743"
       gradientTransform="matrix(0.10760569,0,0,0.10760569,-47.670741,909.89883)"
       gradientUnits="userSpaceOnUse"
       id="linearGradient3688-6"
       xlink:href="#linearGradient3625-5"
       inkscape:collect="always" />
    <inkscape:perspective
       sodipodi:type="inkscape:persp3d"
       inkscape:vp_x="0 : 0.5 : 1"
       inkscape:vp_y="0 : 1000 : 0"
       inkscape:vp_z="1 : 0.5 : 1"
       inkscape:persp3d-origin="0.5 : 0.33333333 : 1"
       id="perspective3702" />
    <linearGradient
       y2="542.97144"
       x2="1598.4268"
       y1="542.97144"
       x1="865.36743"
       gradientTransform="matrix(0.10760569,0,0,0.10760569,-47.670741,909.89883)"
       gradientUnits="userSpaceOnUse"
       id="linearGradient3690"
       xlink:href="#linearGradient3617"
       inkscape:collect="always" />
    <linearGradient
       y2="542.97144"
       x2="1598.4268"
       y1="542.97144"
       x1="865.36743"
       gradientTransform="matrix(0.10760569,0,0,0.10760569,-47.670741,909.89883)"
       gradientUnits="userSpaceOnUse"
       id="linearGradient3688"
       xlink:href="#linearGradient3625"
       inkscape:collect="always" />
    <linearGradient
       inkscape:collect="always"
       xlink:href="#linearGradient3617-8"
       id="linearGradient3656"
       gradientUnits="userSpaceOnUse"
       gradientTransform="matrix(-0.70710678,0.70710678,-0.70710678,-0.70710678,2489.305,609.79919)"
       x1="865.36743"
       y1="542.97144"
       x2="1598.4268"
       y2="542.97144" />
    <linearGradient
       inkscape:collect="always"
       xlink:href="#linearGradient3625-7"
       id="linearGradient3654"
       gradientUnits="userSpaceOnUse"
       gradientTransform="matrix(-0.70710678,0.70710678,-0.70710678,-0.70710678,2489.305,609.79919)"
       x1="865.36743"
       y1="542.97144"
       x2="1598.4268"
       y2="542.97144" />
    <linearGradient
       id="linearGradient3617-8">
      <stop
         id="stop3619-9"
         offset="0"
         style="stop-color:#6b6b6b;stop-opacity:1;" />
      <stop
         id="stop3621-0"
         offset="1"
         style="stop-color:#575757;stop-opacity:1;" />
    </linearGradient>
    <linearGradient
       gradientTransform="matrix(0.70710678,-0.70710678,0.70710678,0.70710678,-23.124472,1030.1154)"
       gradientUnits="userSpaceOnUse"
       y2="542.97144"
       x2="1598.4268"
       y1="542.97144"
       x1="865.36743"
       id="linearGradient3623-8"
       xlink:href="#linearGradient3617-8"
       inkscape:collect="always" />
    <linearGradient
       id="linearGradient3625-7">
      <stop
         id="stop3627-5"
         offset="0"
         style="stop-color:#a6a6a6;stop-opacity:1;" />
      <stop
         id="stop3629-7"
         offset="1"
         style="stop-color:#dbdbdb;stop-opacity:1;" />
    </linearGradient>
    <linearGradient
       gradientTransform="matrix(0.70710678,-0.70710678,0.70710678,0.70710678,-23.124472,1030.1154)"
       gradientUnits="userSpaceOnUse"
       y2="542.97144"
       x2="1598.4268"
       y1="542.97144"
       x1="865.36743"
       id="linearGradient3631-6"
       xlink:href="#linearGradient3625-7"
       inkscape:collect="always" />
    <inkscape:perspective
       sodipodi:type="inkscape:persp3d"
       inkscape:vp_x="0 : 0.5 : 1"
       inkscape:vp_y="0 : 1000 : 0"
       inkscape:vp_z="1 : 0.5 : 1"
       inkscape:persp3d-origin="0.5 : 0.33333333 : 1"
       id="perspective3641" />
    <linearGradient
       gradientTransform="matrix(0.70710678,-0.70710678,0.70710678,0.70710678,-23.124472,1030.1154)"
       gradientUnits="userSpaceOnUse"
       y2="542.97144"
       x2="1598.4268"
       y1="542.97144"
       x1="865.36743"
       id="linearGradient3631"
       xlink:href="#linearGradient3625"
       inkscape:collect="always" />
    <linearGradient
       gradientTransform="matrix(0.70710678,-0.70710678,0.70710678,0.70710678,-23.124472,1030.1154)"
       gradientUnits="userSpaceOnUse"
       y2="542.97144"
       x2="1598.4268"
       y1="542.97144"
       x1="865.36743"
       id="linearGradient3623"
       xlink:href="#linearGradient3617"
       inkscape:collect="always" />
    <inkscape:perspective
       sodipodi:type="inkscape:persp3d"
       inkscape:vp_x="0 : 0.5 : 1"
       inkscape:vp_y="0 : 1000 : 0"
       inkscape:vp_z="1 : 0.5 : 1"
       inkscape:persp3d-origin="0.5 : 0.33333333 : 1"
       id="perspective2826" />
    <inkscape:perspective
       id="perspective10"
       inkscape:persp3d-origin="372.04724 : 350.78739 : 1"
       inkscape:vp_z="744.09448 : 526.18109 : 1"
       inkscape:vp_y="0 : 1000 : 0"
       inkscape:vp_x="0 : 526.18109 : 1"
       sodipodi:type="inkscape:persp3d" />
    <linearGradient
       id="linearGradient3617">
      <stop
         id="stop3619"
         offset="0"
         style="stop-color:#6b6b6b;stop-opacity:1;" />
      <stop
         id="stop3621"
         offset="1"
         style="stop-color:#575757;stop-opacity:1;" />
    </linearGradient>
    <linearGradient
       id="linearGradient3625">
      <stop
         id="stop3627"
         offset="0"
         style="stop-color:#cecece;stop-opacity:1;" />
      <stop
         style="stop-color:#efefef;stop-opacity:1;"
         offset="0.5"
         id="stop3692" />
      <stop
         id="stop3629"
         offset="1"
         style="stop-color:#c9c9c9;stop-opacity:1;" />
    </linearGradient>
  </defs>
  <sodipodi:namedview
     id="base"
     pagecolor="#ffffff"
     bordercolor="#666666"
     borderopacity="1.0"
     inkscape:pageopacity="0.0"
     inkscape:pageshadow="2"
     inkscape:zoom="8"
     inkscape:cx="40.728327"
     inkscape:cy="15.762365"
     inkscape:current-layer="layer1-8"
     showgrid="true"
     inkscape:document-units="px"
     inkscape:grid-bbox="true"
     inkscape:window-width="1920"
     inkscape:window-height="1018"
     inkscape:window-x="-32000"
     inkscape:window-y="-32000"
     inkscape:window-maximized="1">
    <inkscape:grid
       type="xygrid"
       id="grid2997" />
  </sodipodi:namedview>
  <metadata
     id="metadata2990">
    <rdf:RDF>
      <cc:Work
         rdf:about="">
        <dc:format>image/svg+xml</dc:format>
        <dc:type
           rdf:resource="http://purl.org/dc/dcmitype/StillImage" />
        <dc:title></dc:title>
      </cc:Work>
    </rdf:RDF>
  </metadata>
  <g
     id="layer1"
     inkscape:label="Layer 1"
     inkscape:groupmode="layer">
    <g
       transform="matrix(0.34268073,0,0,0.34268073,10.202944,-307.49864)"
       id="layer1-8"
       inkscape:label="Layer 1">
      <g
         transform="matrix(1.3882419,0,0,1.3882419,-25.198317,-387.72196)"
         id="g3771">
        <path
           style="fill:#000000;fill-opacity:1;fill-rule:evenodd;stroke:none;filter:url(#filter3767)"
           d="m 111.07313,935.25053 c -8.51578,-4.24428 -19.137821,-2.81855 -26.236347,4.27999 -7.098575,7.09857 -8.524351,17.72091 -4.279994,26.23634 l -43.755781,44.12204 c -8.51542,-4.2443 -19.137757,-2.8186 -26.236335,4.28 -7.0993329,7.0993 -8.5254103,17.7207 -4.2799939,26.2362 l 14.5162989,-14.5162 c 0.04407,-0.043 0.130738,-0.031 0.192615,0.031 l 9.993769,9.9937 c 0.06189,0.061 0.07499,0.1494 0.0309,0.1927 l -14.516297,14.5162 c 8.515763,4.2443 19.1378,2.8186 26.236344,-4.28 7.098585,-7.0987 8.524349,-17.7208 4.279995,-26.2362 l 43.755757,-44.1221 c 8.515427,4.24435 19.137779,2.81859 26.236359,-4.27998 7.09934,-7.09933 8.52541,-17.72071 4.27999,-26.23635 l -14.51631,14.51631 c -0.0441,0.044 -0.13068,0.0311 -0.1926,-0.0309 l -9.993782,-9.99377 c -0.06183,-0.0618 -0.07497,-0.1486 -0.03091,-0.1926 l 14.516312,-14.5163 1e-5,-8e-5 z"
           id="rect2816-6"
           sodipodi:nodetypes="csccsccccccsccsccccccc"
           inkscape:connector-curvature="0" />
        <path
           style="fill:url(#linearGradient3775);fill-opacity:1;fill-rule:evenodd;stroke:url(#linearGradient3777);stroke-width:2.15211368;stroke-miterlimit:4;stroke-opacity:1;stroke-dasharray:none"
           d="m 111.18984,931.80599 c -8.51577,-4.24428 -19.137811,-2.81855 -26.236337,4.27999 -7.098575,7.09857 -8.524351,17.72091 -4.279994,26.23634 l -43.755781,44.12198 c -8.51542,-4.2443 -19.137757,-2.8186 -26.236334,4.28 -7.0993335,7.0993 -8.5254109,17.7207 -4.2799944,26.2362 l 14.5162984,-14.5162 c 0.04407,-0.043 0.130738,-0.031 0.192615,0.031 l 9.993769,9.9937 c 0.06189,0.061 0.07499,0.1494 0.0309,0.1927 l -14.516297,14.5162 c 8.515763,4.2443 19.1378,2.8186 26.236344,-4.28 7.098585,-7.0987 8.524349,-17.7208 4.279995,-26.2362 l 43.755757,-44.12204 c 8.515427,4.24435 19.137769,2.81859 26.236349,-4.27998 7.09934,-7.09933 8.52541,-17.72071 4.27999,-26.23635 l -14.51631,14.51631 c -0.0441,0.044 -0.13068,0.0311 -0.1926,-0.0309 l -9.993772,-9.99377 c -0.06183,-0.0618 -0.07497,-0.1486 -0.03091,-0.1926 l 14.516302,-14.5163 1e-5,-8e-5 z"
           id="rect2816"
           sodipodi:nodetypes="csccsccccccsccsccccccc"
           inkscape:connector-curvature="0" />
      </g>
    </g>
    <g
       id="g3022"
       transform="matrix(0.00574455,0,0,0.00574455,31.814002,18.243128)">
      <path
         inkscape:export-ydpi="75"
         inkscape:export-xdpi="75"
         inkscape:export-filename="/media/ELCGTR/Vmarker/media/logo/vmarker_by_elecgator.png"
         inkscape:connector-curvature="0"
         style="fill:#ff0000;fill-rule:evenodd;stroke:#000000;stroke-width:50;stroke-miterlimit:4;stroke-opacity:1;stroke-dasharray:none;visibility:visible"
         id="path22"
         d="m 3456.8811,2717.9254 0,-3469 1087.9998,0 141,5 62,7 60,10 56,11 51,15 48,18 43,21 41,25 38,28 36,33 35,41 31,43 31,49 30,54 26,58 25,62 21,67 17,69 16,72 11,73 9,79 3,82 2,83 -1,74 -3,70 -7,69 -8,67 -12,64 -13,60 -15,58 -19,57 -21,54 -22,52 -25,48 -25,45 -29,42 -29,40 -32,39 -33,35 -20,20 -16,17 -10,11 -23,20 6,7 12,15 10,14 11,17 12,18 13,23 30,52 33,65 31,67 26,59 21,52 8,21 8,22 342,1090 -830,0 -344.9999,-1053 -27,-78 -13,-34 -12,-30 -11,-25 -12,-22 -10,-17 -4,-7 -6,-6 -13,-14 -13,-11 -14,-11 -15,-8 -14,-6 -17,-5 -15,-2 -16,-2 4,0 0,1331 z m 737.9999,-2141 202,0 c 59.118,-5.6482 111.0299,-22.48 161.9999,-46 3.274,-1.5107 9,-6 9,-6 l 8,-6 9,-9 9,-10 7,-9 7,-13 7,-13 7,-13 4,-16 5,-14 4,-17 3,-17 2,-17 1,-18 0,-18 -1,-29 -1,-25 -1,-13 -2,-12 -2,-12 -4,-9 -3,-13 -2,-10 -5,-9 -3,-9 -4,-8 -5,-10 -5,-7 -5,-8 -6,-7 -7,-7 -6,-7 -8,-6 -10,-5 -10,-6 -21,-8 -26,-6 -28,-5 -32.9999,-2 -34,-2 -214,0 z" />
      <path
         inkscape:export-ydpi="75"
         inkscape:export-xdpi="75"
         inkscape:export-filename="/media/ELCGTR/Vmarker/media/logo/vmarker_by_elecgator.png"
         inkscape:connector-curvature="0"
         style="fill:#ff420e;fill-rule:evenodd;stroke:#000000;stroke-width:50;stroke-miterlimit:4;stroke-opacity:1;stroke-dasharray:none;visibility:visible"
         id="path542"
         d="m 2390.8811,-751.0746 1769.9999,0 0,890 -1035.9999,0 0,331 960.9999,0 0,858 -960.9999,0 0,456 1065.9999,0 0,934 -1799.9999,0 0,-3469 z" />
      <path
         inkscape:export-ydpi="75"
         inkscape:export-xdpi="75"
         inkscape:export-filename="/media/ELCGTR/Vmarker/media/logo/vmarker_by_elecgator.png"
         inkscape:connector-curvature="0"
         style="fill:#ffff00;fill-rule:evenodd;stroke:#000000;stroke-width:50;stroke-miterlimit:4;stroke-opacity:1;stroke-dasharray:none;visibility:visible"
         id="path604"
         d="m 1003.8811,-751.0746 734,0 0,1076 563,-1076 985,0 -792,1345 792,2124 -901,0 -401,-1280 -246,423 0,857 -734,0 0,-3469 z" />
      <path
         inkscape:export-ydpi="75"
         inkscape:export-xdpi="75"
         inkscape:export-filename="/media/ELCGTR/Vmarker/media/logo/vmarker_by_elecgator.png"
         inkscape:connector-curvature="0"
         style="fill:#00ff00;fill-rule:evenodd;stroke:#000000;stroke-width:50;stroke-miterlimit:4;stroke-opacity:1;stroke-dasharray:none;visibility:visible"
         id="path666"
         d="m -386.11886,2717.9254 0,-3469 1088,0 139,5 64,7 59,10 55.99996,11 52,15 47,18 43,21 41,25 38,28 36,33 35,41 32,43 30,49 30,54 26,58 25,62 22,67 17,69 15,72 12,73 7,79 5,82 2,83 -1,74 -4,70 -7,69 -8,67 -11,64 -13,60 -17,58 -18,57 -20,54 -23,52 -25,48 -25,45 -29,42 -29,40 -31,39 -34,35 -19,20 -16,17 -10,11 -24,20 6,7 12,15 10,14 11,17 12,18 14,23 29,52 33,65 32,67 26,59 20,52 9,21 7,22 342,1090 -828.99996,0 -346,-1053 -27,-78 -13,-34 -12,-30 -11,-25 -11,-22 -11,-17 -4,-7 -6,-6 -13,-14 -13,-11 -15,-11 -14,-8 -14,-6 -16,-5 -15,-2 -17,-2 5,0 0,1331 z m 738,-2141 202,0 c 54.9984,-5.1082 111.0099,-21.1764 161,-46 2.9855,-1.4825 8,-6 8,-6 l 9,-6 10,-9 8,-10 8,-9 6,-13 8,-13 5,-13 6,-16 4,-14 4,-17 3,-17 2,-17 2,-18 0,-18 -1,-29 -2,-25 -1,-13 -2,-12 -2,-12 -3,-9 -3,-13 -3,-10 -5,-9 -3,-9 -4,-8 -5,-10 -4,-7 -6,-8 -6,-7 -6,-7 -8,-7 -7,-6 -9,-5 -11,-6 -21,-8 -25,-6 -29,-5 -33,-2 -34,-2 -213,0 z" />
      <g
         inkscape:export-ydpi="75"
         inkscape:export-xdpi="75"
         inkscape:export-filename="/media/ELCGTR/Vmarker/media/logo/vmarker_by_elecgator.png"
         style="fill:#00ffff;fill-rule:evenodd;stroke:#000000;stroke-width:50.00720596;stroke-miterlimit:4;stroke-opacity:1;stroke-dasharray:none;visibility:visible"
         id="g1186"
         transform="matrix(0.99999998,0,0,0.9997118,-6609.119,-3665.2346)">
        <path
           inkscape:connector-curvature="0"
           style="stroke:#000000;stroke-width:50.00720596;stroke-miterlimit:4;stroke-opacity:1;stroke-dasharray:none"
           id="path1188"
           d="m 6082,5843 -616,0 -97,542 -759,0 795,-3470 754,0 796,3470 -775,0 -98,-542 z m -164,-900 -142,-757 -142,757 284,0 z" />
      </g>
      <path
         inkscape:export-ydpi="75"
         inkscape:export-xdpi="75"
         inkscape:export-filename="/media/ELCGTR/Vmarker/media/logo/vmarker_by_elecgator.png"
         inkscape:connector-curvature="0"
         style="fill:#ff00ff;fill-opacity:1;fill-rule:nonzero;stroke:#000000;stroke-width:50;stroke-miterlimit:4;stroke-opacity:1;stroke-dasharray:none;stroke-dashoffset:0;visibility:visible"
         id="path1246"
         d="m -5513.1191,-751.0746 1860.0002,0 275,1219.7259 275,-1219.7259 1857,0 0,3469 -1122,0 105,-2584.8232 -624,2584.8232 -985,0 -622,-2584.8232 105,2584.8232 -1124.0002,0 z" />
      <g
         inkscape:export-ydpi="75"
         inkscape:export-xdpi="75"
         inkscape:export-filename="/media/ELCGTR/Vmarker/media/logo/vmarker_by_elecgator.png"
         style="fill:#ffffff;fill-opacity:0.50196078;fill-rule:evenodd;stroke:#000000;stroke-width:50;stroke-miterlimit:4;stroke-opacity:1;stroke-dasharray:none;visibility:visible"
         id="g1310"
         transform="translate(-6609.119,-3666.5103)">
        <path
           sodipodi:nodetypes="cccccccc"
           inkscape:connector-curvature="0"
           style="stroke:#000000;stroke-width:50;stroke-miterlimit:4;stroke-opacity:1;stroke-dasharray:none"
           id="path1312"
           d="M 1444,999.99977 2525,1000 3231,4135.1857 3938,1000 l 1084,0 -1300,5384.4357 -985,0 z" />
      </g>
    </g>
    <text
       xml:space="preserve"
       style="font-size:24.33857918px;font-style:normal;font-variant:normal;font-weight:normal;font-stretch:normal;line-height:125%;letter-spacing:2.10840154px;word-spacing:0px;fill:#000000;fill-opacity:1;stroke:none;font-family:Automatica BRK;-inkscape-font-specification:Automatica BRK"
       x="-0.77914947"
       y="54.716534"
       id="text3991"
       sodipodi:linespacing="125%"><tspan
         sodipodi:role="line"
         id="tspan3993"
         x="-0.77914947"
         y="54.716534"
         style="font-style:normal;font-variant:normal;font-weight:normal;font-stretch:normal;letter-spacing:2.10840154px;font-family:Duepuntozero;-inkscape-font-specification:Duepuntozero">Utility</tspan></text>
  </g>
</svg>
